<svg width="512" height="512" viewBox="0 0 512 512" fill="none" xmlns="http://www.w3.org/2000/svg">
  <rect width="512" height="512" rx="48" fill="#F3F8EA"/>
  <g transform="translate(256 208)">
    <circle cx="0" cy="-6" r="18" fill="#111827"/>
    <path d="M-18 10C-37 18 -54 31 -69 50C-46 42 -27 42 -12 56C-14 75 -19 94 -26 112C-30 123 -32 137 -29 150H29C32 137 30 123 26 112C19 94 14 75 12 56C27 42 46 42 69 50C54 31 37 18 18 10C8 25 3 42 0 62C-3 42 -8 25 -18 10Z" fill="#0F172A"/>
    <path d="M-72 152C-32 145 32 145 72 152C28 154 -28 154 -72 152Z" fill="#0F172A"/>
  </g>
  <g transform="translate(256 188)">
    <g fill="#84CC16">
      <path d="M-10 -118C-28 -118 -40 -104 -40 -85C-22 -85 -10 -98 -10 -118Z"/>
      <path d="M72 -115C54 -115 42 -101 42 -82C60 -82 72 -95 72 -115Z"/>
      <path d="M137 -75C120 -77 106 -66 100 -49C116 -46 131 -54 137 -75Z"/>
      <path d="M-98 -114C-80 -111 -69 -97 -70 -79C-88 -82 -99 -95 -98 -114Z"/>
      <path d="M-164 -72C-147 -70 -136 -57 -137 -39C-154 -41 -165 -54 -164 -72Z"/>
      <path d="M-186 6C-169 7 -157 19 -156 37C-173 37 -185 24 -186 6Z"/>
      <path d="M-169 78C-154 82 -146 95 -148 112C-163 108 -171 95 -169 78Z"/>
      <path d="M186 6C169 7 157 19 156 37C173 37 185 24 186 6Z"/>
      <path d="M169 78C154 82 146 95 148 112C163 108 171 95 169 78Z"/>
    </g>
    <g fill="#0EA5E9">
      <path d="M-52 -96C-74 -96 -90 -79 -90 -53C-68 -53 -52 -69 -52 -96Z"/>
      <path d="M110 -92C88 -92 72 -75 72 -49C94 -49 110 -66 110 -92Z"/>
      <path d="M-181 8C-203 9 -219 26 -220 51C-198 50 -182 34 -181 8Z"/>
      <path d="M181 8C203 9 219 26 220 51C198 50 182 34 181 8Z"/>
      <path d="M-141 92C-160 97 -171 114 -169 136C-150 132 -139 114 -141 92Z"/>
      <path d="M141 92C160 97 171 114 169 136C150 132 139 114 141 92Z"/>
    </g>
    <g fill="#F59E0B">
      <path d="M0 -74C-24 -56 -30 -23 -13 6C10 -7 16 -39 0 -74Z"/>
      <path d="M-84 -29C-108 -29 -125 -11 -126 15C-102 15 -85 -3 -84 -29Z"/>
      <path d="M84 -29C108 -29 125 -11 126 15C102 15 85 -3 84 -29Z"/>
      <path d="M-146 34C-170 35 -186 53 -187 79C-163 78 -147 60 -146 34Z"/>
      <path d="M146 34C170 35 186 53 187 79C163 78 147 60 146 34Z"/>
    </g>
    <g fill="#EF4444">
      <path d="M-96 80C-120 82 -137 101 -137 128C-113 126 -96 108 -96 80Z"/>
      <path d="M96 80C120 82 137 101 137 128C113 126 96 108 96 80Z"/>
    </g>
  </g>
</svg>
